<?xml version="1.0" encoding="UTF-8" standalone="no"?>
<!-- Created with Inkscape (http://www.inkscape.org/) -->

<svg
   width="128"
   height="128"
   viewBox="0 0 128 128"
   version="1.1"
   id="svg1"
   inkscape:export-filename="pixel-circle.png"
   inkscape:export-xdpi="96"
   inkscape:export-ydpi="96"
   inkscape:version="1.4 (e7c3feb1, 2024-10-09)"
   sodipodi:docname="_template_inkscape.svg"
   xml:space="preserve"
   xmlns:inkscape="http://www.inkscape.org/namespaces/inkscape"
   xmlns:sodipodi="http://sodipodi.sourceforge.net/DTD/sodipodi-0.dtd"
   xmlns="http://www.w3.org/2000/svg"
   xmlns:svg="http://www.w3.org/2000/svg"><sodipodi:namedview
     id="namedview1"
     pagecolor="#ffffff"
     bordercolor="#000000"
     borderopacity="0.25"
     inkscape:showpageshadow="2"
     inkscape:pageopacity="0.0"
     inkscape:pagecheckerboard="0"
     inkscape:deskcolor="#d1d1d1"
     inkscape:document-units="px"
     showgrid="true"
     inkscape:antialias-rendering="false"
     inkscape:zoom="5.8094358"
     inkscape:cx="69.369904"
     inkscape:cy="53.619665"
     inkscape:window-width="1512"
     inkscape:window-height="916"
     inkscape:window-x="0"
     inkscape:window-y="38"
     inkscape:window-maximized="1"
     inkscape:current-layer="g56"><inkscape:grid
       id="grid1"
       units="px"
       originx="16"
       originy="16"
       spacingx="1"
       spacingy="1"
       empcolor="#0099e5"
       empopacity="0.30196078"
       color="#0099e5"
       opacity="0.14901961"
       empspacing="4"
       enabled="true"
       visible="true" /></sodipodi:namedview><defs
     id="defs1"><marker
       id="DistanceX"
       orient="auto"
       refX="0.0"
       refY="0.0"
       style="overflow:visible"><path
         d="M 3,-3 L -3,3 M 0,-5 L  0,5"
         style="stroke:#000000; stroke-width:0.5"
         id="path1" /></marker><pattern
       id="Hatch"
       patternUnits="userSpaceOnUse"
       width="8"
       height="8"
       x="0"
       y="0"><path
         d="M8 4 l-4,4"
         stroke="#000000"
         stroke-width="0.25"
         linecap="square"
         id="path2" /><path
         d="M6 2 l-4,4"
         stroke="#000000"
         stroke-width="0.25"
         linecap="square"
         id="path3" /><path
         d="M4 0 l-4,4"
         stroke="#000000"
         stroke-width="0.25"
         linecap="square"
         id="path4" /></pattern><symbol
       id="*Model_Space" /><symbol
       id="*Paper_Space" /><symbol
       id="*Paper_Space0" /><marker
       id="DistanceX-1"
       orient="auto"
       refX="0.0"
       refY="0.0"
       style="overflow:visible"><path
         d="M 3,-3 L -3,3 M 0,-5 L  0,5"
         style="stroke:#000000; stroke-width:0.5"
         id="path1-4" /></marker><pattern
       id="Hatch-8"
       patternUnits="userSpaceOnUse"
       width="8"
       height="8"
       x="0"
       y="0"><path
         d="M8 4 l-4,4"
         stroke="#000000"
         stroke-width="0.25"
         linecap="square"
         id="path2-8" /><path
         d="M6 2 l-4,4"
         stroke="#000000"
         stroke-width="0.25"
         linecap="square"
         id="path3-7" /><path
         d="M4 0 l-4,4"
         stroke="#000000"
         stroke-width="0.25"
         linecap="square"
         id="path4-1" /></pattern><symbol
       id="*Model_Space-9" /><symbol
       id="*Paper_Space-3" /><symbol
       id="*Paper_Space0-1" /></defs><g
     inkscape:label="Layer 1"
     inkscape:groupmode="layer"
     id="layer1"
     transform="translate(2.9728929)"><g
       inkscape:groupmode="layer"
       id="layer2"
       inkscape:label="done"><g
         id="g56"
         transform="matrix(8.4666668,0,0,8.4665619,-2.9728929,-9471.8815)"
         style="stroke-width:0.118111"><g
           inkscape:label="0"
           id="g4"
           style="stroke-width:0.118111" /><g
           inkscape:label="water"
           id="g6"
           style="stroke-width:0.118111"><path
             d="m 0,1133.8583 h 15.11811 v -15.1181 H 0 Z"
             style="fill:#6699cc;stroke-width:0.118111;stroke:none"
             id="path5" /><path
             d="m 0,1133.8583 h 15.11811 v -15.1181 H 0 Z"
             style="fill:none;stroke:none;stroke-width:0.118111"
             id="path6" /></g><g
           inkscape:label="background"
           id="g96"
           style="display:inline;stroke-width:0.118111"><path
             d="m 1.889764,1125.3543 v 0.9449 h 1.889764 v -1.8898 H 2.834646 l -0.03226,6e-4 H 2.770165 2.738018 2.705984 2.6741 l -0.031696,0.01 -0.031473,0.01 -0.031211,0.01 -0.030915,0.01 -0.030581,0.01 -0.030212,0.011 -0.029808,0.012 -0.029369,0.013 -0.028896,0.014 -0.02839,0.015 -0.027849,0.016 -0.027277,0.017 -0.026672,0.018 -0.026037,0.019 -0.025372,0.02 -0.024676,0.021 -0.023952,0.022 -0.023201,0.022 -0.022421,0.023 -0.021616,0.024 -0.020786,0.025 -0.019931,0.025 -0.019053,0.026 -0.018154,0.027 -0.017232,0.027 -0.016291,0.028 -0.01533,0.028 -0.014352,0.029 -0.013358,0.029 -0.012347,0.03 -0.011322,0.03 -0.010284,0.031 -0.00923,0.031 -0.00817,0.031 -0.0071,0.032 -0.00602,0.032 -0.00494,0.032 -0.00385,0.032 -0.00275,0.032 -0.00165,0.032 z"
             style="fill:#98984c;stroke-width:0.118111;stroke:none"
             id="path50" /><path
             d="m 11.338583,1120.6299 h 3.779527 v -1.8897 h -3.779527 z"
             style="fill:none;stroke:none;stroke-width:0.118111"
             id="path51" /><path
             d="m 5.669291,1119.685 v -0.9448 H 3.779528 v 1.8897"
             style="fill:none;stroke:none;stroke-width:0.118111"
             id="path52" /><path
             d="M 3.779528,1120.6299 H 4.724409"
             style="fill:none;stroke:none;stroke-width:0.118111"
             id="path53" /><path
             d="m 4.724409,1120.6299 a 0.944882,0.944882 0 0 0 0.944882,-0.9449"
             style="fill:none;stroke:none;stroke-width:0.118111"
             id="path54" /><path
             d="m 9.448819,1119.685 v -0.9448 h 1.889764 v 1.8897 h -0.944882"
             style="fill:none;stroke:none;stroke-width:0.118111"
             id="path55" /><path
             d="m 9.448819,1119.685 a 0.944882,0.944882 0 0 0 0.944882,0.9449"
             style="fill:none;stroke:none;stroke-width:0.118111"
             id="path56" /><path
             d="m 9.448819,1126.2992 h 1.889764 v -3.7795 H 9.448819 Z"
             style="fill:none;stroke:none;stroke-width:0.118111"
             id="path57" /><path
             d="m 6.614173,1124.4094 h 0.944882 v 1.8898 H 5.669291 v -0.9449"
             style="fill:none;stroke:none;stroke-width:0.118111"
             id="path58" /><path
             d="m 5.669291,1125.3543 a 0.944882,0.944882 0 0 0 -0.944882,-0.9449"
             style="fill:none;stroke:none;stroke-width:0.118111"
             id="path59" /><path
             d="M 4.724409,1124.4094 H 3.779528"
             style="fill:none;stroke:none;stroke-width:0.118111"
             id="path60" /><path
             d="m 3.779528,1124.4094 v -1.8897 h 1.889763 v 0.9449"
             style="fill:none;stroke:none;stroke-width:0.118111"
             id="path61" /><path
             d="m 5.669291,1123.4646 a 0.944882,0.944882 0 0 0 0.944882,0.9448"
             style="fill:none;stroke:none;stroke-width:0.118111"
             id="path62" /><path
             d="m 13.228346,1125.3543 v 0.9449 h 1.889764 v -3.7795 h -3.779527 v 1.8897 h 0.944882"
             style="fill:none;stroke:none;stroke-width:0.118111"
             id="path63" /><path
             d="m 13.228346,1125.3543 a 0.944882,0.944882 0 0 0 -0.944881,-0.9449"
             style="fill:none;stroke:none;stroke-width:0.118111"
             id="path64" /><path
             d="m 3.779528,1130.0787 h 1.889763 v -3.7795 H 3.779528 Z"
             style="fill:none;stroke:none;stroke-width:0.118111"
             id="path65" /><path
             d="M 0.944882,1128.189 H 0 v 1.8897"
             style="fill:none;stroke:none;stroke-width:0.118111"
             id="path66" /><path
             d="m 0,1130.0787 h 1.889764 v -0.9448"
             style="fill:none;stroke:none;stroke-width:0.118111"
             id="path67" /><path
             d="M 1.889764,1129.1339 A 0.944882,0.944882 0 0 0 0.944882,1128.189"
             style="fill:none;stroke:none;stroke-width:0.118111"
             id="path68" /><path
             d="m 10.393701,1128.189 h 0.944882 v -1.8898 H 9.448819 v 0.9449"
             style="fill:none;stroke:none;stroke-width:0.118111"
             id="path69" /><path
             d="m 8.503937,1128.189 a 0.944882,0.944882 0 0 0 0.944882,-0.9449"
             style="fill:none;stroke:none;stroke-width:0.118111"
             id="path70" /><path
             d="M 8.503937,1128.189 H 7.559055 v 1.8897 h 1.889764 v -0.9448"
             style="fill:none;stroke:none;stroke-width:0.118111"
             id="path71" /><path
             d="m 10.393701,1128.189 a 0.944882,0.944882 0 0 0 -0.944882,0.9449"
             style="fill:none;stroke:none;stroke-width:0.118111"
             id="path72" /><path
             d="m 13.228346,1129.1339 v 0.9448 h -1.889763 v -3.7795 h 3.779527 v 1.8898 h -0.944882"
             style="fill:none;stroke:none;stroke-width:0.118111"
             id="path73" /><path
             d="m 14.173228,1128.189 a 0.944882,0.944882 0 0 0 -0.944882,0.9449"
             style="fill:none;stroke:none;stroke-width:0.118111"
             id="path74" /><path
             d="m 0,1133.8583 h 3.779528 v -1.8898 H 0 Z"
             style="fill:none;stroke:none;stroke-width:0.118111"
             id="path75" /><path
             d="m 11.338583,1133.8583 h 3.779527 v -3.7796 h -3.779527 z"
             style="fill:none;stroke:none;stroke-width:0.118111"
             id="path76" /><path
             d="m 5.669291,1131.0236 v -0.9449 H 3.779528 v 1.8898"
             style="fill:none;stroke:none;stroke-width:0.118111"
             id="path77" /><path
             d="m 3.779528,1131.9685 v 1.8898 h 3.779527 v -1.8898 H 6.614173"
             style="fill:none;stroke:none;stroke-width:0.118111"
             id="path78" /><path
             d="m 5.669291,1131.0236 a 0.944882,0.944882 0 0 0 0.944882,0.9449"
             style="fill:none;stroke:none;stroke-width:0.118111"
             id="path79" /><path
             d="m 9.448819,1131.0236 v -0.9449 h 1.889764 v 1.8898"
             style="fill:none;stroke:none;stroke-width:0.118111"
             id="path80" /><path
             d="m 11.338583,1131.9685 v 1.8898 H 7.559055 v -1.8898 h 0.944882"
             style="fill:none;stroke:none;stroke-width:0.118111"
             id="path81" /><path
             d="m 8.503937,1131.9685 a 0.944882,0.944882 0 0 0 0.944882,-0.9449"
             style="fill:none;stroke:none;stroke-width:0.118111"
             id="path82" /><path
             d="m 11.338583,1120.6299 h 3.779527 v -1.8897 h -3.779527 z"
             style="fill:#98984c;stroke-width:0.118111;stroke:none"
             id="path83" /><path
             d="m 5.669291,1119.685 v -0.9448 H 3.779528 v 1.8897 h 0.944881 l 0.03226,-5e-4 H 4.78889 4.821037 4.853071 4.884955 l 0.031696,-0.01 0.031473,-0.01 0.031212,-0.01 0.030914,-0.01 0.030581,-0.01 0.030212,-0.011 0.029808,-0.012 0.02937,-0.013 0.028896,-0.014 0.028389,-0.015 0.027849,-0.016 0.027277,-0.017 0.026672,-0.018 0.026037,-0.019 0.025372,-0.02 0.024676,-0.021 0.023953,-0.022 0.0232,-0.022 0.022421,-0.023 0.021616,-0.024 0.020786,-0.025 0.019931,-0.025 0.019054,-0.026 0.018153,-0.027 0.017232,-0.027 0.016291,-0.028 0.01533,-0.028 0.014352,-0.029 0.013358,-0.029 0.012347,-0.03 0.011322,-0.03 0.010284,-0.031 0.00923,-0.031 0.00817,-0.031 0.0071,-0.031 0.00602,-0.032 0.00494,-0.032 0.00385,-0.032 0.00275,-0.032 0.00165,-0.032 z"
             style="fill:#98984c;stroke-width:0.118111;stroke:none"
             id="path84" /><path
             d="m 9.448819,1126.2992 h 1.889764 v -3.7795 H 9.448819 Z"
             style="fill:#98984c;stroke-width:0.118111;stroke:none"
             id="path85" /><path
             d="m 13.228346,1125.3543 v 0.9449 h 1.889764 v -3.7795 h -3.779527 v 1.8897 h 0.944882 l 0.03226,6e-4 h 0.03222 0.03215 0.03203 0.03188 l 0.0317,0.01 0.03147,0.01 0.03121,0.01 0.03091,0.01 0.03058,0.01 0.03021,0.011 0.02981,0.012 0.02937,0.013 0.0289,0.014 0.02839,0.015 0.02785,0.016 0.02728,0.017 0.02667,0.018 0.02604,0.019 0.02537,0.02 0.02468,0.021 0.02395,0.022 0.0232,0.022 0.02242,0.023 0.02162,0.024 0.02079,0.025 0.01993,0.025 0.01905,0.026 0.01815,0.027 0.01723,0.027 0.01629,0.028 0.01533,0.028 0.01435,0.029 0.01336,0.029 0.01235,0.03 0.01132,0.03 0.01028,0.031 0.0092,0.031 0.0082,0.031 0.0071,0.032 0.006,0.032 0.0049,0.032 0.0038,0.032 0.0028,0.032 0.0017,0.032 z"
             style="fill:#98984c;stroke-width:0.118111;stroke:none"
             id="path86" /><path
             d="m 3.779528,1130.0787 h 1.889763 v -3.7795 H 3.779528 Z"
             style="fill:#98984c;stroke-width:0.118111;stroke:none"
             id="path87" /><path
             d="M 0.944882,1128.189 H 0 v 1.8897 h 1.889764 v -0.9448 l -5.51e-4,-0.032 -0.00165,-0.032 -0.00275,-0.032 -0.00385,-0.032 -0.00494,-0.032 -0.00602,-0.032 -0.0071,-0.032 -0.00817,-0.031 -0.00923,-0.031 -0.010284,-0.031 -0.011322,-0.03 -0.012347,-0.03 -0.013357,-0.029 -0.014352,-0.029 -0.015331,-0.028 -0.016291,-0.028 -0.017232,-0.027 -0.018153,-0.027 -0.019053,-0.026 -0.019932,-0.025 -0.020785,-0.025 -0.021616,-0.024 -0.022422,-0.023 -0.0232,-0.022 -0.023952,-0.022 -0.024677,-0.021 -0.025371,-0.02 -0.026037,-0.019 -0.026673,-0.018 -0.027277,-0.017 -0.027849,-0.016 -0.028389,-0.015 -0.028896,-0.014 -0.029369,-0.013 -0.029808,-0.012 -0.030212,-0.011 -0.030582,-0.01 -0.030914,-0.01 -0.031212,-0.01 -0.031472,-0.01 -0.031697,-0.01 H 1.073555 1.041521 1.009375 0.977153 Z"
             style="fill:#98984c;stroke-width:0.118111;stroke:none"
             id="path88" /><path
             d="m 10.393701,1128.189 h 0.944882 v -1.8898 H 9.448819 v 0.9449 l -5.51e-4,0.032 -0.00165,0.032 -0.00275,0.032 -0.00385,0.032 -0.00494,0.032 -0.00602,0.032 -0.0071,0.031 -0.00817,0.031 -0.00923,0.031 -0.010284,0.031 -0.011322,0.03 -0.012347,0.03 -0.013357,0.029 -0.014352,0.029 -0.015331,0.028 -0.016291,0.028 -0.017232,0.027 -0.018153,0.027 -0.019053,0.026 -0.019931,0.025 -0.020786,0.025 -0.021616,0.024 -0.022422,0.023 -0.0232,0.022 -0.023952,0.022 -0.024676,0.021 -0.025372,0.02 -0.026037,0.019 -0.026673,0.018 -0.027277,0.017 -0.027849,0.016 -0.028389,0.015 -0.028896,0.014 -0.029369,0.013 -0.029808,0.012 -0.030212,0.011 -0.030581,0.01 -0.030915,0.01 -0.031212,0.01 -0.031472,0.01 -0.031697,0.01 -0.031884,0.01 H 8.600577 8.56843 8.536208 l -0.032259,6e-4 H 7.559055 v 1.8897 h 1.889764 v -0.9448 l 5.51e-4,-0.032 0.00165,-0.032 0.00275,-0.032 0.00385,-0.032 0.00494,-0.032 0.00602,-0.032 0.0071,-0.032 0.00817,-0.031 0.00923,-0.031 0.010284,-0.031 0.011322,-0.03 0.012346,-0.03 0.013358,-0.029 0.014352,-0.029 0.015331,-0.028 0.01629,-0.028 0.017232,-0.027 0.018154,-0.027 0.019053,-0.026 0.019931,-0.025 0.020786,-0.025 0.021616,-0.024 0.022421,-0.023 0.023201,-0.022 0.023952,-0.022 0.024676,-0.021 0.025372,-0.02 0.026037,-0.019 0.026673,-0.018 0.027276,-0.017 0.02785,-0.016 0.028389,-0.015 0.028896,-0.014 0.029369,-0.013 0.02981,-0.012 0.03021,-0.011 0.03058,-0.01 0.03092,-0.01 0.03121,-0.01 0.03147,-0.01 0.0317,-0.01 h 0.03188 0.03203 0.03215 0.03222 z"
             style="fill:#98984c;stroke-width:0.118111;stroke:none"
             id="path89" /><path
             d="m 0,1133.8583 h 3.779528 v -1.8898 H 0 Z"
             style="fill:#98984c;stroke-width:0.118111;stroke:none"
             id="path90" /><path
             d="m 11.338583,1133.8583 h 3.779527 v -3.7796 h -3.779527 z"
             style="fill:#98984c;stroke-width:0.118111;stroke:none"
             id="path91" /><path
             d="m 5.669291,1131.0236 v -0.9449 H 3.779528 v 1.8898 1.8898 h 3.779527 v -1.8898 H 6.614173 l -0.032259,-5e-4 H 6.549692 6.517546 6.485512 6.453628 l -0.031697,-0.01 -0.031472,-0.01 -0.031212,-0.01 -0.030914,-0.01 -0.030581,-0.01 -0.030213,-0.011 -0.029808,-0.012 -0.029369,-0.013 -0.028896,-0.014 -0.028389,-0.015 -0.027849,-0.016 -0.027277,-0.017 -0.026673,-0.018 -0.026037,-0.019 -0.025371,-0.02 -0.024677,-0.021 -0.023952,-0.022 -0.0232,-0.022 -0.022421,-0.023 -0.021617,-0.024 -0.020785,-0.025 -0.019931,-0.025 -0.019054,-0.026 -0.018153,-0.027 -0.017232,-0.027 -0.016291,-0.028 -0.01533,-0.028 -0.014353,-0.029 -0.013357,-0.029 -0.012347,-0.03 -0.011322,-0.03 -0.010284,-0.03 -0.00923,-0.031 -0.00817,-0.031 -0.0071,-0.031 -0.00602,-0.032 -0.00494,-0.032 -0.00385,-0.032 -0.00275,-0.032 -0.00165,-0.032 z"
             style="fill:#98984c;stroke-width:0.118111;stroke:none"
             id="path92" /><path
             d="m 9.448819,1119.685 v -0.9448 h 1.889764 v 1.8897 h -0.944882 l -0.03226,-5e-4 h -0.03222 -0.03215 -0.03203 -0.03188 l -0.0317,-0.01 -0.03147,-0.01 -0.03121,-0.01 -0.03092,-0.01 -0.03058,-0.01 -0.03021,-0.011 -0.02981,-0.012 -0.029369,-0.013 -0.028896,-0.014 -0.028389,-0.015 -0.02785,-0.016 -0.027276,-0.017 -0.026673,-0.018 -0.026037,-0.019 -0.025372,-0.02 -0.024676,-0.021 -0.023952,-0.022 -0.023201,-0.022 -0.022421,-0.023 -0.021616,-0.024 -0.020786,-0.025 -0.019931,-0.025 -0.019053,-0.026 -0.018154,-0.027 -0.017232,-0.027 -0.01629,-0.028 -0.015331,-0.028 -0.014352,-0.029 -0.013358,-0.029 -0.012346,-0.03 -0.011322,-0.03 -0.010284,-0.031 -0.00923,-0.031 -0.00817,-0.031 -0.0071,-0.031 -0.00602,-0.032 -0.00494,-0.032 -0.00385,-0.032 -0.00275,-0.032 -0.00165,-0.032 z"
             style="fill:#98984c;stroke-width:0.118111;stroke:none"
             id="path93" /><path
             d="m 6.614173,1124.4094 h 0.944882 v 1.8898 H 5.669291 v -0.9449 l -5.51e-4,-0.032 -0.00165,-0.032 -0.00275,-0.032 -0.00385,-0.032 -0.00494,-0.032 -0.00602,-0.032 -0.0071,-0.032 -0.00817,-0.031 -0.00923,-0.031 -0.010284,-0.031 -0.011322,-0.03 -0.012347,-0.03 -0.013358,-0.029 -0.014352,-0.029 -0.01533,-0.028 -0.016291,-0.028 -0.017232,-0.027 -0.018153,-0.027 -0.019054,-0.026 -0.019931,-0.025 -0.020786,-0.025 -0.021616,-0.024 -0.022421,-0.023 -0.0232,-0.022 -0.023953,-0.022 -0.024676,-0.021 -0.025372,-0.02 -0.026037,-0.019 -0.026672,-0.018 -0.027277,-0.017 -0.027849,-0.016 -0.028389,-0.015 -0.028896,-0.014 -0.02937,-0.013 -0.029808,-0.012 -0.030212,-0.011 -0.030581,-0.01 -0.030914,-0.01 -0.031212,-0.01 -0.031473,-0.01 -0.031696,-0.01 H 4.853082 4.821048 4.788901 4.75668 l -0.03226,-6e-4 H 3.779528 v -1.8897 h 1.889763 v 0.9449 l 5.51e-4,0.032 0.00165,0.032 0.00275,0.032 0.00385,0.032 0.00494,0.032 0.00602,0.032 0.0071,0.032 0.00817,0.031 0.00923,0.031 0.010284,0.031 0.011322,0.03 0.012347,0.03 0.013357,0.029 0.014353,0.029 0.01533,0.028 0.016291,0.028 0.017232,0.027 0.018153,0.027 0.019054,0.026 0.019931,0.025 0.020785,0.025 0.021617,0.024 0.022421,0.023 0.0232,0.022 0.023952,0.022 0.024677,0.021 0.025371,0.02 0.026037,0.019 0.026673,0.018 0.027277,0.017 0.027849,0.016 0.028389,0.015 0.028896,0.014 0.029369,0.013 0.029808,0.012 0.030213,0.011 0.030581,0.01 0.030914,0.01 0.031212,0.01 0.031472,0.01 0.031697,0.01 H 6.4855 6.517534 6.54968 6.581902 Z"
             style="fill:#98984c;stroke-width:0.118111;stroke:none"
             id="path94" /><path
             d="m 13.228346,1129.1339 v 0.9448 h -1.889763 v -3.7795 h 3.779527 v 1.8898 h -0.944882 l -0.03226,5e-4 h -0.03222 -0.03215 -0.03203 -0.03188 l -0.0317,0.01 -0.03147,0.01 -0.03121,0.01 -0.03091,0.01 -0.03058,0.01 -0.03021,0.011 -0.02981,0.012 -0.02937,0.013 -0.0289,0.014 -0.02839,0.015 -0.02785,0.016 -0.02728,0.017 -0.02667,0.018 -0.02604,0.019 -0.02537,0.02 -0.02468,0.021 -0.02395,0.022 -0.0232,0.022 -0.02242,0.023 -0.02162,0.024 -0.02079,0.025 -0.01993,0.025 -0.01905,0.026 -0.01815,0.027 -0.01723,0.027 -0.01629,0.028 -0.01533,0.028 -0.01435,0.029 -0.01336,0.029 -0.01235,0.03 -0.01132,0.03 -0.01028,0.031 -0.0092,0.031 -0.0082,0.031 -0.0071,0.032 -0.006,0.032 -0.0049,0.032 -0.0038,0.032 -0.0028,0.032 -0.0017,0.032 z"
             style="fill:#98984c;stroke-width:0.118111;stroke:none"
             id="path95" /><path
             d="m 9.448819,1131.0236 v -0.9449 h 1.889764 v 1.8898 1.8898 H 7.559055 v -1.8898 h 0.944882 l 0.032259,-5e-4 h 0.032222 0.032147 0.032033 0.031884 l 0.031697,-0.01 0.031472,-0.01 0.031212,-0.01 0.030915,-0.01 0.030581,-0.01 0.030212,-0.011 0.029808,-0.012 0.029369,-0.013 0.028896,-0.014 0.028389,-0.015 0.027849,-0.016 0.027277,-0.017 0.026673,-0.018 0.026037,-0.019 0.025372,-0.02 0.024676,-0.021 0.023952,-0.022 0.0232,-0.022 0.022422,-0.023 0.021616,-0.024 0.020786,-0.025 0.019931,-0.025 0.019053,-0.026 0.018153,-0.027 0.017232,-0.027 0.016291,-0.028 0.015331,-0.028 0.014352,-0.029 0.013357,-0.029 0.012347,-0.03 0.011322,-0.03 0.010284,-0.03 0.00923,-0.031 0.00817,-0.031 0.0071,-0.031 0.00602,-0.032 0.00494,-0.032 0.00385,-0.032 0.00275,-0.032 0.00165,-0.032 z"
             style="fill:#98984c;stroke-width:0.118111;stroke:none"
             id="path96" /></g><g
           inkscape:label="outline"
           id="g49"
           style="stroke-width:0.118111"
           transform="translate(0)"><path
             style="fill:none;stroke:#939319;stroke-width:0.118111;stroke-opacity:1"
             d="m 9.44882,1122.52 v 3.78"
             id="path7" /><path
             style="fill:none;stroke:#939319;stroke-width:0.118111;stroke-opacity:1"
             d="m 1.88976,1130.08 v -0.95"
             id="path8" /><path
             d="M 1.889764,1129.1339 A 0.944882,0.944882 0 0 0 0.944882,1128.189"
             style="fill:none;stroke:#939319;stroke-width:0.118111;stroke-opacity:1"
             id="path9" /><path
             style="fill:none;stroke:#939319;stroke-width:0.118111;stroke-opacity:1"
             d="M 0.944882,1128.19 H 0"
             id="path10" /><path
             style="fill:none;stroke:#939319;stroke-width:0.118111;stroke-opacity:1"
             d="m 5.66929,1130.08 v -3.78"
             id="path11" /><path
             style="fill:none;stroke:#939319;stroke-width:0.118111;stroke-opacity:1"
             d="M 7.55905,1131.97 H 8.50394"
             id="path12" /><path
             d="m 8.503937,1131.9685 a 0.944882,0.944882 0 0 0 0.944882,-0.9449"
             style="fill:none;stroke:#939319;stroke-width:0.118111;stroke-opacity:1"
             id="path13" /><path
             style="fill:none;stroke:#939319;stroke-width:0.118111;stroke-opacity:1"
             d="m 9.44882,1131.02 v -0.94"
             id="path14" /><path
             style="fill:none;stroke:#939319;stroke-width:0.118111;stroke-opacity:1"
             d="M 7.55905,1131.97 H 6.61417"
             id="path15" /><path
             d="m 5.669291,1131.0236 a 0.944882,0.944882 0 0 0 0.944882,0.9449"
             style="fill:none;stroke:#939319;stroke-width:0.118111;stroke-opacity:1"
             id="path16" /><path
             style="fill:none;stroke:#939319;stroke-width:0.118111;stroke-opacity:1"
             d="m 5.66929,1131.02 v -0.94"
             id="path17" /><path
             style="fill:none;stroke:#939319;stroke-width:0.118111;stroke-opacity:1"
             d="M 3.77953,1131.97 H 0"
             id="path18" /><path
             style="fill:none;stroke:#939319;stroke-width:0.118111;stroke-opacity:1"
             d="M 15.1181,1128.19 H 14.1732"
             id="path19" /><path
             d="m 14.173228,1128.189 a 0.944882,0.944882 0 0 0 -0.944882,0.9449"
             style="fill:none;stroke:#939319;stroke-width:0.118111;stroke-opacity:1"
             id="path20" /><path
             style="fill:none;stroke:#939319;stroke-width:0.118111;stroke-opacity:1"
             d="m 13.2283,1129.13 v 0.95"
             id="path21" /><path
             style="fill:none;stroke:#939319;stroke-width:0.118111;stroke-opacity:1"
             d="m 11.3386,1124.41 h 0.9449"
             id="path22" /><path
             d="m 13.228346,1125.3543 a 0.944882,0.944882 0 0 0 -0.944881,-0.9449"
             style="fill:none;stroke:#939319;stroke-width:0.118111;stroke-opacity:1"
             id="path23" /><path
             style="fill:none;stroke:#939319;stroke-width:0.118111;stroke-opacity:1"
             d="m 13.2283,1125.35 v 0.95"
             id="path24" /><path
             style="fill:none;stroke:#939319;stroke-width:0.118111;stroke-opacity:1"
             d="m 9.44882,1130.08 v -0.95"
             id="path25" /><path
             d="m 10.393701,1128.189 a 0.944882,0.944882 0 0 0 -0.944882,0.9449"
             style="fill:none;stroke:#939319;stroke-width:0.118111;stroke-opacity:1"
             id="path26" /><path
             style="fill:none;stroke:#939319;stroke-width:0.118111;stroke-opacity:1"
             d="m 10.3937,1128.19 h 0.9449"
             id="path27" /><path
             style="fill:none;stroke:#939319;stroke-width:0.118111;stroke-opacity:1"
             d="m 9.44882,1126.3 v 0.94"
             id="path28" /><path
             d="m 8.503937,1128.189 a 0.944882,0.944882 0 0 0 0.944882,-0.9449"
             style="fill:none;stroke:#939319;stroke-width:0.118111;stroke-opacity:1"
             id="path29" /><path
             style="fill:none;stroke:#939319;stroke-width:0.118111;stroke-opacity:1"
             d="M 8.50394,1128.19 H 7.55905"
             id="path30" /><path
             style="fill:none;stroke:#939319;stroke-width:0.118111;stroke-opacity:1"
             d="m 5.66929,1126.3 v -0.95"
             id="path31" /><path
             d="m 5.669291,1125.3543 a 0.944882,0.944882 0 0 0 -0.944882,-0.9449"
             style="fill:none;stroke:#939319;stroke-width:0.118111;stroke-opacity:1"
             id="path32" /><path
             style="fill:none;stroke:#939319;stroke-width:0.118111;stroke-opacity:1"
             d="M 4.72441,1124.41 H 3.77953"
             id="path33" /><path
             style="fill:none;stroke:#939319;stroke-width:0.118111;stroke-opacity:1"
             d="m 5.66929,1122.52 v 0.94"
             id="path34" /><path
             d="m 5.669291,1123.4646 a 0.944882,0.944882 0 0 0 0.944882,0.9448"
             style="fill:none;stroke:#939319;stroke-width:0.118111;stroke-opacity:1"
             id="path35" /><path
             style="fill:none;stroke:#939319;stroke-width:0.118111;stroke-opacity:1"
             d="M 6.61417,1124.41 H 7.55905"
             id="path36" /><path
             style="fill:none;stroke:#939319;stroke-width:0.118111;stroke-opacity:1"
             d="M 3.77953,1124.41 H 2.83465"
             id="path37" /><path
             d="m 2.834646,1124.4094 a 0.944882,0.944882 0 0 0 -0.944882,0.9449"
             style="fill:none;stroke:#939319;stroke-width:0.118111;stroke-opacity:1"
             id="path38" /><path
             style="fill:none;stroke:#939319;stroke-width:0.118111;stroke-opacity:1"
             d="m 1.88976,1125.35 v 0.95"
             id="path39" /><path
             style="fill:none;stroke:#939319;stroke-width:0.118111;stroke-opacity:1"
             d="M 3.77953,1124.41 H 2.83465"
             id="path40" /><path
             d="m 2.834646,1124.4094 a 0.944882,0.944882 0 0 0 -0.944882,0.9449"
             style="fill:none;stroke:#939319;stroke-width:0.118111;stroke-opacity:1"
             id="path41" /><path
             style="fill:none;stroke:#939319;stroke-width:0.118111;stroke-opacity:1"
             d="m 1.88976,1125.35 v 0.95"
             id="path42" /><path
             style="fill:none;stroke:#939319;stroke-width:0.118111;stroke-opacity:1"
             d="M 3.77953,1120.63 H 4.72441"
             id="path43" /><path
             d="m 4.724409,1120.6299 a 0.944882,0.944882 0 0 0 0.944882,-0.9449"
             style="fill:none;stroke:#939319;stroke-width:0.118111;stroke-opacity:1"
             id="path44" /><path
             style="fill:none;stroke:#939319;stroke-width:0.118111;stroke-opacity:1"
             d="m 5.66929,1119.69 v -0.95"
             id="path45" /><path
             style="fill:none;stroke:#939319;stroke-width:0.118111;stroke-opacity:1"
             d="M 11.3386,1120.63 H 10.3937"
             id="path46" /><path
             d="m 9.448819,1119.685 a 0.944882,0.944882 0 0 0 0.944882,0.9449"
             style="fill:none;stroke:#939319;stroke-width:0.118111;stroke-opacity:1"
             id="path47" /><path
             style="fill:none;stroke:#939319;stroke-width:0.118111;stroke-opacity:1"
             d="m 9.44882,1119.69 v -0.95"
             id="path48" /><path
             style="fill:none;stroke:#939319;stroke-width:0.118111;stroke-opacity:1"
             d="m 11.3386,1120.63 h 3.7795"
             id="path49" /></g></g></g></g></svg>
